# xmcd
#
# Track frame offsets:
#	150
#	21933
#	47161
#	72691
#	101312
#	116069
#	131760
#	152690
#	167456
#	190166
#	213279
#	239036
#	258207
#
# Disc length: 3658 seconds
#
# Revision: 1
# Processed by: cddbd v1.5PL3 Copyright (c) Steve Scherf et al.
# Submitted via: audiograbber 1.83.01
#
DISCID=b70e480d
DTITLE=Dj Disco. - x
DYEAR=1900
DGENRE=
TTITLE0=Gitup! Gitup!
TTITLE1=Monsta Freaks.
TTITLE2=Dirty Disco Dubs. (Stamp Your Feet) (Klubbheads Rmx)
TTITLE3=The Anthem.
TTITLE4=Let's Dance!
TTITLE5=Freakshow Of A Genius.
TTITLE6=Super Freak.
TTITLE7=That Sound.
TTITLE8=La Musique Disco.
TTITLE9=Reach 2 The Top. (Klubbheads Mix)
TTITLE10=Let's Do It In The 90's.
TTITLE11=Stamp Your Feet. (Rap Varsion)
TTITLE12=Bonus
EXTD=
EXTT0=
EXTT1=
EXTT2=
EXTT3=
EXTT4=
EXTT5=
EXTT6=
EXTT7=
EXTT8=
EXTT9=
EXTT10=
EXTT11=
EXTT12=
PLAYORDER=
